<?xml version="1.0" encoding="UTF-8" standalone="no"?>
<!-- Created with Inkscape (http://www.inkscape.org/) -->

<svg
   width="96.84623mm"
   height="12.763368mm"
   viewBox="0 0 96.84623 12.763368"
   version="1.1"
   id="svg1"
   xml:space="preserve"
   sodipodi:docname="logo.svg"
   inkscape:version="1.3.2 (091e20e, 2023-11-25, custom)"
   inkscape:export-filename="..\cargochains\static\adminlte\img\logo.png"
   inkscape:export-xdpi="96"
   inkscape:export-ydpi="96"
   xmlns:inkscape="http://www.inkscape.org/namespaces/inkscape"
   xmlns:sodipodi="http://sodipodi.sourceforge.net/DTD/sodipodi-0.dtd"
   xmlns="http://www.w3.org/2000/svg"
   xmlns:svg="http://www.w3.org/2000/svg"><sodipodi:namedview
     id="namedview1"
     pagecolor="#ffffff"
     bordercolor="#000000"
     borderopacity="0.25"
     inkscape:showpageshadow="2"
     inkscape:pageopacity="0.0"
     inkscape:pagecheckerboard="0"
     inkscape:deskcolor="#d1d1d1"
     inkscape:document-units="mm"
     inkscape:zoom="1.1714513"
     inkscape:cx="123.77809"
     inkscape:cy="875.40986"
     inkscape:window-width="1366"
     inkscape:window-height="745"
     inkscape:window-x="-8"
     inkscape:window-y="-8"
     inkscape:window-maximized="1"
     inkscape:current-layer="svg1"
     showguides="false" /><defs
     id="defs1" /><g
     id="g5"
     inkscape:export-filename="..\cargochains\static\stellar\images\logo-dark.svg"
     inkscape:export-xdpi="96"
     inkscape:export-ydpi="96"
     transform="translate(19.098858,-239.78054)"
     style="fill:#0055d4;fill-opacity:1"><path
       id="path4"
       style="fill:#0055d4;fill-opacity:1;stroke-width:0.229471"
       d="m -19.098859,242.64206 0.0057,0.2138 c 0.0032,0.11761 0.0054,0.4735 0.0051,0.79094 -4.25e-4,0.31745 0.01039,1.53828 0.02415,2.71293 0.01372,1.17465 0.02325,2.39494 0.02124,2.71175 -0.0021,0.3168 0.02233,0.61999 0.05405,0.67371 0.03172,0.0537 0.307973,0.23522 0.613831,0.40338 1.408431,0.77438 2.052375,1.13649 2.267023,1.27455 0.127841,0.0822 0.282762,0.15757 0.344262,0.16745 0.08433,0.0136 0.853952,-0.42475 3.12749,-1.78081 l 3.0156391,-1.7986 -0.00874,-0.62933 c -0.00449,-0.34614 -0.012718,-1.05539 -0.017512,-1.57606 -0.00449,-0.52068 -0.0111,-1.06363 -0.013851,-1.2067 l -0.0052,-0.26008 -0.3154132,-0.18532 c -0.1734889,-0.10191 -0.4226629,-0.24097 -0.5536079,-0.30908 l -0.238092,-0.12384 -0.652809,0.38543 c -0.407674,0.2407 -0.641114,0.40548 -0.621512,0.4387 0.01723,0.0292 0.240235,0.16504 0.495482,0.30181 0.255253,0.13676 0.474711,0.26836 0.487443,0.29264 0.01263,0.0243 0.02769,0.50155 0.03311,1.06066 l 0.0098,1.01653 -0.924442,0.5458 -0.924535,0.54586 -0.885746,-0.4994 c -0.487169,-0.27466 -0.897837,-0.51849 -0.912644,-0.5419 -0.01482,-0.0234 -0.02572,-0.50083 -0.02429,-1.0609 l 0.0026,-1.01835 2.419369,-1.42844 2.4194861,-1.42846 0.3082893,0.18814 c 0.1695315,0.10344 0.5453772,0.32383 0.8351925,0.48957 0.5715017,0.32683 0.5996822,0.36715 0.5846715,0.83938 -0.00449,0.13883 -0.00224,0.78799 0.00602,1.44264 0.031221,2.6312 0.033571,3.36825 0.0111,3.46233 -0.029343,0.12293 -2.8680664,1.84873 -2.9888754,1.81711 -0.04282,-0.0106 -0.161737,-0.14553 -0.263946,-0.29849 l -0.1858,-0.27806 -0.479589,0.26247 c -0.78355,0.42871 -0.771037,0.30625 -0.140547,1.37414 l 0.539584,0.91392 2.4536948,-1.44868 2.4536858,-1.44867 0.016189,-0.20346 c 0.00886,-0.11194 0.0052,-0.89507 -0.00803,-1.7403 -0.013402,-0.84524 -0.03017,-2.23137 -0.037243,-3.08031 -0.01737,-2.07737 -0.014973,-1.99329 -0.058994,-2.06783 -0.021373,-0.0362 -0.2836136,-0.20565 -0.5826618,-0.37649 -1.0221081,-0.58383 -2.33284,-1.29885 -2.4637265,-1.34391 -0.1165359,-0.04 -0.2742233,0.0376 -1.4517983,0.71614 l -1.321139,0.76114 -0.782386,-1.26548 -0.782389,-1.2655 -2.454356,1.43075 z m 1.395963,0.79678 1.510029,-0.87293 1.510179,-0.87291 0.401283,0.67967 0.401278,0.67967 -1.108638,0.68978 -1.108541,0.68972 0.01668,1.78808 c 0.0092,0.98344 0.03493,1.81967 0.05715,1.85823 0.02222,0.0385 0.416184,0.27898 0.875583,0.53418 0.459394,0.2552 0.834708,0.49098 0.83404,0.52402 -6.09e-4,0.0329 -0.3286,0.25335 -0.728737,0.4896 l -0.72756,0.42954 -0.187013,-0.11873 c -0.102873,-0.0653 -0.510904,-0.29826 -0.906754,-0.5177 -0.39585,-0.21943 -0.739961,-0.43322 -0.764713,-0.47515 -0.02476,-0.0419 -0.0483,-0.46632 -0.05228,-0.94314 -0.004,-0.47683 -0.01423,-1.57411 -0.02284,-2.43829 -0.0086,-0.86416 -0.01189,-1.69544 -0.0073,-1.8474 z"
       inkscape:export-filename="..\Logo\logo-white.png"
       inkscape:export-xdpi="96"
       inkscape:export-ydpi="96" /><text
       xml:space="preserve"
       style="font-style:normal;font-variant:normal;font-weight:bold;font-stretch:normal;font-size:11.335px;font-family:'Open Sans';-inkscape-font-specification:'Open Sans, Bold';font-variant-ligatures:normal;font-variant-caps:normal;font-variant-numeric:normal;font-variant-east-asian:normal;fill:#0055d4;fill-opacity:1;stroke-width:0.265665"
       x="-4.4867306"
       y="250.50014"
       id="text5"
       inkscape:export-filename="..\Logo\logo-white.png"
       inkscape:export-xdpi="96"
       inkscape:export-ydpi="96"><tspan
         id="tspan5"
         x="-4.4867306"
         y="250.50014"
         style="font-style:normal;font-variant:normal;font-weight:bold;font-stretch:normal;font-size:11.335px;font-family:'Open Sans';-inkscape-font-specification:'Open Sans, Bold';font-variant-ligatures:normal;font-variant-caps:normal;font-variant-numeric:normal;font-variant-east-asian:normal;fill:#0055d4;fill-opacity:1;stroke-width:0.265665">CARGOCHAINS</tspan></text></g><text
     xml:space="preserve"
     style="font-style:normal;font-variant:normal;font-weight:normal;font-stretch:normal;font-size:5.86498px;font-family:'Open Sans';-inkscape-font-specification:'Open Sans, Normal';font-variant-ligatures:normal;font-variant-caps:normal;font-variant-numeric:normal;font-variant-east-asian:normal;fill:#0055d4;fill-opacity:1;stroke-width:0.137461"
     x="14.974399"
     y="17.208647"
     id="text6"
     inkscape:export-filename="..\Logo\logo-white.png"
     inkscape:export-xdpi="96"
     inkscape:export-ydpi="96"><tspan
       id="tspan6"
       x="14.974399"
       y="17.208647"
       style="font-style:normal;font-variant:normal;font-weight:normal;font-stretch:normal;font-size:5.86498px;font-family:'Open Sans';-inkscape-font-specification:'Open Sans, Normal';font-variant-ligatures:normal;font-variant-caps:normal;font-variant-numeric:normal;font-variant-east-asian:normal;fill:#0055d4;fill-opacity:1;stroke-width:0.137461">The Trustworthy Partner</tspan></text></svg>
